<svg width="24" height="24" viewBox="0 0 16 16" fill="none" xmlns="http://www.w3.org/2000/svg">
<g clip-path="url(#clip0_549_3508)">
<path d="M10.4462 3.11182H5.55825C4.20849 3.11182 3.11429 4.20602 3.11429 5.55578V10.4437C3.11429 11.7935 4.20849 12.8877 5.55825 12.8877H10.4462C11.7959 12.8877 12.8901 11.7935 12.8901 10.4437V5.55578C12.8901 4.20602 11.7959 3.11182 10.4462 3.11182Z" stroke="#ffffff" stroke-width="1.09978" stroke-linecap="round" stroke-linejoin="round"/>
<path d="M8.00222 9.83294C9.01455 9.83294 9.8352 9.01229 9.8352 7.99996C9.8352 6.98764 9.01455 6.16699 8.00222 6.16699C6.9899 6.16699 6.16925 6.98764 6.16925 7.99996C6.16925 9.01229 6.9899 9.83294 8.00222 9.83294Z" stroke="#ffffff" stroke-width="0.916486" stroke-linecap="round" stroke-linejoin="round"/>
<path d="M10.7517 5.25049V5.25085" stroke="#ffffff" stroke-width="0.916486" stroke-linecap="round" stroke-linejoin="round"/>
</g>
<defs>
<clipPath id="clip0_549_3508">
<rect width="14.6638" height="14.6638" fill="white" transform="translate(0.670338 0.667969)"/>
</clipPath>
</defs>
</svg>
