<svg width="24" height="24" viewBox="0 0 16 16" fill="none" xmlns="http://www.w3.org/2000/svg">
<g clip-path="url(#clip0_549_3496)">
<path d="M2.51635 12.8878L3.31064 10.505C2.62416 9.48969 2.37582 8.28734 2.6118 7.1215C2.84778 5.95566 3.55202 4.90567 4.59358 4.16673C5.63513 3.4278 6.94313 3.05023 8.27438 3.1042C9.60562 3.15818 10.8695 3.64004 11.8311 4.46019C12.7926 5.28033 13.3864 6.38296 13.502 7.56305C13.6176 8.74315 13.2471 9.9204 12.4595 10.8759C11.6719 11.8315 10.5207 12.5002 9.22001 12.7579C7.9193 13.0156 6.55756 12.8447 5.388 12.2769L2.51635 12.8878" stroke="#222222" stroke-width="0.916486" stroke-linecap="round" stroke-linejoin="round"/>
<path d="M5.5713 8.61065L7.40427 7.38867L8.62625 8.61065L10.4592 7.38867" stroke="#222222" stroke-width="0.916486" stroke-linecap="round" stroke-linejoin="round"/>
</g>
<defs>
<clipPath id="clip0_549_3496">
<rect width="14.6638" height="14.6638" fill="white" transform="translate(0.68338 0.667969)"/>
</clipPath>
</defs>
</svg>
