<svg width="13" height="13" viewBox="0 0 13 13" fill="none" xmlns="http://www.w3.org/2000/svg">
<g clip-path="url(#clip0_549_3505)">
<path d="M12.5572 9.29751C12.503 9.11855 12.242 8.99154 12.242 8.99154C12.2189 8.97768 12.1959 8.96614 12.1774 8.9569C11.7647 8.76131 11.3809 8.50995 11.0366 8.20987C10.7842 7.98845 10.5618 7.73499 10.375 7.45591C10.217 7.22473 10.0941 6.97144 10.0102 6.70426C9.98692 6.64448 9.98692 6.57815 10.0102 6.51837C10.0322 6.4778 10.0634 6.44299 10.1014 6.41677C10.248 6.31285 10.4836 6.16045 10.6279 6.07039C10.7526 5.98956 10.8588 5.91913 10.9235 5.87526C11.0987 5.76345 11.2448 5.61145 11.3495 5.43189C11.402 5.33378 11.4324 5.22538 11.4386 5.11429C11.4448 5.0032 11.4266 4.89209 11.3853 4.78877C11.3276 4.64251 11.2252 4.51817 11.0928 4.4334C10.9603 4.34862 10.8045 4.30773 10.6475 4.31654C10.5698 4.31735 10.4924 4.32625 10.4166 4.34309C10.2287 4.38744 10.0445 4.44651 9.86586 4.51975C9.86326 4.52067 9.86048 4.52095 9.85774 4.52058C9.85501 4.52021 9.85241 4.51919 9.85015 4.51761C9.84789 4.51603 9.84604 4.51393 9.84476 4.51149C9.84347 4.50905 9.84279 4.50634 9.84276 4.50358C9.86989 4.02742 9.86719 3.55001 9.83468 3.07418C9.80769 2.66794 9.71042 2.26946 9.54719 1.89648C9.4148 1.61781 9.24249 1.35993 9.0357 1.13098C8.80385 0.87166 8.53077 0.652413 8.22747 0.482091C7.65259 0.158939 7.00259 -0.00674412 6.34315 0.00177775C5.68411 -0.00659509 5.03452 0.159085 4.45999 0.482091C4.15701 0.652883 3.884 0.872071 3.65177 1.13098C3.445 1.35971 3.27304 1.61765 3.14143 1.89648C2.97688 2.26799 2.87842 2.66537 2.85047 3.07072C2.81675 3.54612 2.81405 4.02322 2.84239 4.49897C2.84235 4.50187 2.84164 4.50472 2.84029 4.50729C2.83895 4.50986 2.83702 4.51208 2.83465 4.51377C2.83229 4.51545 2.82957 4.51657 2.8267 4.517C2.82383 4.51744 2.8209 4.51719 2.81814 4.51628C2.63982 4.4432 2.45606 4.38414 2.26855 4.33963C2.19044 4.32232 2.1107 4.31341 2.0307 4.31307C1.87382 4.30416 1.71814 4.34502 1.58586 4.42982C1.45358 4.51462 1.35146 4.63904 1.29406 4.78531C1.25279 4.88863 1.23461 4.99973 1.24079 5.11082C1.24697 5.22192 1.27737 5.33032 1.32985 5.42843C1.43412 5.60797 1.57981 5.75998 1.75475 5.87179C1.8171 5.91567 1.92563 5.98725 2.05033 6.06692C2.19235 6.15813 2.42096 6.30708 2.56875 6.4133C2.60959 6.44155 2.64353 6.47865 2.66805 6.52183C2.69297 6.58409 2.69297 6.65355 2.66805 6.71581C2.58411 6.97981 2.46238 7.23026 2.30665 7.45937C2.11985 7.73874 1.89701 7.99225 1.64391 8.21333C1.29983 8.51363 0.915958 8.765 0.50316 8.96036L0.431571 8.99846C0.431571 8.99846 0.172943 9.13124 0.124449 9.30097C0.0517092 9.55383 0.239909 9.79053 0.44081 9.91638C0.732573 10.0897 1.04913 10.2174 1.37951 10.2951C1.44185 10.3124 1.49496 10.3274 1.55154 10.3436C1.60748 10.3599 1.6586 10.3897 1.70049 10.4302C1.73792 10.4927 1.76043 10.563 1.7663 10.6357C1.77687 10.7172 1.80393 10.7956 1.84581 10.8663C1.8877 10.937 1.94353 10.9983 2.00992 11.0467C2.19119 11.1726 2.42096 11.1807 2.71077 11.1922C3.08885 11.1928 3.46476 11.2496 3.82612 11.3608C4.03506 11.4401 4.23418 11.5431 4.41958 11.6679C4.85949 11.9381 5.40677 12.2752 6.342 12.2752C7.27723 12.2752 7.82798 11.9369 8.27135 11.6656C8.45389 11.5415 8.65036 11.4392 8.85673 11.3608C9.21809 11.2496 9.59399 11.1928 9.97208 11.1922C10.263 11.1807 10.4917 11.1726 10.6729 11.0467C10.7427 10.9949 10.8009 10.9292 10.8438 10.8536C10.8868 10.7781 10.9135 10.6944 10.9223 10.608C10.9275 10.5447 10.9481 10.4836 10.9824 10.4302C11.0222 10.3904 11.0714 10.3614 11.1255 10.3459C11.1798 10.3286 11.241 10.3136 11.3045 10.2951C11.6038 10.2264 11.8921 10.1164 12.1612 9.96834C12.5746 9.73742 12.6023 9.44414 12.5596 9.30097" fill="#222222"/>
</g>
<defs>
<clipPath id="clip0_549_3505">
<rect width="12.4651" height="12.27" fill="white" transform="translate(0.107132 0.00195312)"/>
</clipPath>
</defs>
</svg>
